<svg width="406.00738" height="329.77792" xmlns="http://www.w3.org/2000/svg" xmlns:sodipodi="http://sodipodi.sourceforge.net/DTD/sodipodi-0.dtd" xmlns:inkscape="http://www.inkscape.org/namespaces/inkscape" xmlns:xlink="http://www.w3.org/1999/xlink" version="1.1">
 <defs id="defs4">
  <linearGradient  id="linearGradient967">
   <stop stop-color="#c2c2c2" offset="0" id="stop963"/>
   <stop stop-color="#9f9f9f" offset="1" id="stop965"/>
  </linearGradient>
  <linearGradient  xlink:href="#linearGradient967" id="linearGradient969" x1="0.62713" y1="0.04573" x2="0.61221" y2="0.92683"/>
 </defs>
 <metadata id="metadata7">image/svg+xml</metadata>
 <g>
  <title>Layer 1</title>
  <rect transform="rotate(-90 203.004 164.889)" stroke-miterlimit="4" stroke-linejoin="round" stroke-linecap="round" stroke-width="1.59331" fill-rule="nonzero" fill="#eeeeee" id="rect1017" width="329.77792" height="406.00739" x="38.11473" y="-38.11473" ry="7.01361"/>
  <g id="g1015">
   <rect transform="rotate(-16.3428 -408.237 93.4831)" stroke-miterlimit="4" stroke-linejoin="round" stroke-linecap="round" stroke-width="2.2995" fill-rule="nonzero" fill="#9f9f9f" ry="8.39703" y="272.2302" x="-9.47894" height="90.47" width="82.48997" id="rect1002"/>
   <g transform="rotate(16.3205 129.898 -91.414)" id="g1000">
    <rect stroke-miterlimit="4" stroke-linejoin="round" stroke-linecap="round" stroke-width="5.398" stroke="#ffffff" fill-rule="nonzero" fill="url(#linearGradient969)" id="rect961" width="107.83378" height="115.96551" x="138.94864" y="95.13294" ry="4.59619"/>
    <g stroke-miterlimit="4" stroke-width="13.0708" stroke="#ffffff" id="g875" transform="matrix(0.172655 0 0 0.172655 512.493 -6.32965)">
     <rect shape-rendering="auto" stroke-dashoffset="0" stroke-miterlimit="4" stroke-linejoin="round" stroke-linecap="round" stroke-width="13.0708" stroke="#ffffff" fill-rule="evenodd" fill="#cccccc" clip-rule="nonzero" y="648.80761" x="-2094.4713" height="449.99814" width="491.10556" id="rect3338"/>
     <rect shape-rendering="auto" stroke-dashoffset="0" stroke-miterlimit="4" stroke-linejoin="round" stroke-linecap="round" stroke-width="13.0708" stroke="#ffffff" fill-rule="evenodd" fill="#ffffff" clip-rule="nonzero" y="648.80761" x="-2094.4713" height="209.99976" width="491.10559" id="rect3342"/>
     <path stroke-dashoffset="0" stroke-miterlimit="4" stroke-linejoin="round" stroke-linecap="round" stroke-width="13.0708" stroke="#ffffff" fill-rule="evenodd" fill="#cccccc" clip-rule="nonzero"     id="path3344" d="m-2064.4713,858.80789l38.46147,-53.53818l60.53097,-45.16084l15.88277,18.57394l13.61285,-38.68356l8.20133,-2.98188l13.3106,-28.2093l180,179.99979"/>
     <path stroke-dashoffset="0" stroke-miterlimit="4" stroke-linejoin="round" stroke-linecap="round" stroke-width="13.0708" stroke="#ffffff" fill-rule="evenodd" fill="#b3b3b3" clip-rule="nonzero"   id="path3390-0" d="m-1914.4713,708.8076c4.09311,16.47469 7.71219,33.06728 10.85156,49.75c2.38256,12.66097 4.48857,25.37408 6.31641,38.12695l-22.06445,-7.16015l-46.11133,-29.41602l5.32422,46.42578l-1.61524,24.78711l10.05274,30.37695l73.18554,-11.75585l84.06055,-21.13477l-47.80078,-77.43359l-9.69922,14.93359l-27.125,-22.125l-35.375,-35.375z"/>
     <path stroke-dashoffset="0" stroke-miterlimit="4" stroke-linejoin="round" stroke-linecap="round" stroke-width="13.0708" stroke="#ffffff" fill-rule="evenodd" fill="#cccccc" clip-rule="nonzero"  d="m-1944.47131,888.80786l81.89918,-74.42959l18.50574,-9.68009l23.6512,-44.18894l25.94388,-21.70121l179.99999,179.99979" id="path3358"   />
     <path stroke-dashoffset="0" stroke-miterlimit="4" stroke-linejoin="round" stroke-linecap="round" stroke-width="13.0708" stroke="#ffffff" fill-rule="evenodd" fill="#b3b3b3" clip-rule="nonzero"     id="path3386" d="m-1794.47131,738.80803l35.9388,80.91289l0,30.11038l0,30.11038l22.45864,19.46652c6.52453,-6.45031 14.14893,-11.78526 22.44431,-15.70477c14.8245,-7.00447 31.33823,-9.35959 47.17057,-13.6217c6.42776,-1.73037 12.90672,-3.85419 18.21343,-7.87277c1.35174,-1.02362 2.61592,-2.16281 3.77424,-3.40107l-30,0l-40.52149,-40.55006l-29.85645,-48.91972l-10.25307,8.83886l-39.36898,-39.36894z"/>
     <path stroke-dashoffset="0" stroke-miterlimit="4" stroke-linejoin="round" stroke-linecap="round" stroke-width="13.0708" stroke="#ffffff" fill-rule="evenodd" fill="#ffffff" clip-rule="nonzero"   id="path3370" d="m-1944.47131,1098.80761c-0.41699,-9.60089 -8.81759,-17.60878 17.1252,-30.66806c31.8318,-16.02389 125.895,-35.88836 152.1537,-59.98434c19.42709,-17.82687 -70.4154,-37.66945 -55.0191,-59.07323c6.981,-9.70528 59.037,-19.96947 82.1463,-30.27386c21.90569,-9.76799 15.14129,-19.80328 31.4046,-29.97507c15.7092,-9.82558 68.3499,-19.77358 72.18929,-30.02516c-10.41359,10.52188 -68.83379,20.40327 -89.99999,30.00026c-22.3377,10.128 -21.4689,19.93018 -49.4313,29.48367c-30.1245,10.29239 -89.142,20.55268 -102.7077,30.51626c-28.4133,20.86858 46.863,42.59995 16.2024,59.99993c-41.5203,23.56287 -149.34149,43.29445 -194.06339,59.99993c-30.9039,11.54369 -28.4079,17.74799 -30,29.99967"/>
    </g>
   </g>
  </g>
  <text fill="#767676" font-family="sans-serif" font-size="32px" font-weight="normal" font-style="normal" xml:space="preserve" x="306.096" y="165.37129" id="text1021">
   <tspan text-anchor="middle" font-family="sans-serif" font-size="32px" font-weight="bold" font-style="normal"  id="tspan1019" x="293.296" y="155.77129">NO IMAGE</tspan>
   <tspan text-anchor="middle" font-family="sans-serif" font-size="32px" font-weight="bold" font-style="normal"  x="293.296" y="195.77129" id="tspan1023">AVAILABLE</tspan>
  </text>
 </g>
</svg>